<svg viewBox="0 0 209 43" xmlns="http://www.w3.org/2000/svg" data-logo="logo">
            <g transform="translate(0, 1) rotate(0)" id="logogram" style="opacity: 1;"><path fill="#1BBEA4" d="M20.543 40.7827C31.5887 40.7827 40.543 31.8284 40.543 20.7827C40.543 9.73702 31.5887 0.782715 20.543 0.782715C9.49726 0.782715 0.542969 9.73702 0.542969 20.7827C0.542969 31.8284 9.49726 40.7827 20.543 40.7827ZM26.7823 10.0996C27.086 9.02076 26.0391 8.38284 25.083 9.06401L11.7361 18.5723C10.6992 19.311 10.8623 20.7827 11.9811 20.7827H15.4957V20.7555H22.3455L16.7642 22.7248L14.3037 31.4659C14 32.5447 15.0468 33.1826 16.003 32.5014L29.3499 22.9932C30.3868 22.2545 30.2236 20.7827 29.1049 20.7827H23.7751L26.7823 10.0996Z" clip-rule="evenodd" fill-rule="evenodd"></path></g>
            <g transform="translate(47, 2)" id="logotype" style="opacity: 1;"><path d="M11.07 32L6.17 32L16.18 8.38L21.25 8.38L31.14 32L26.07 32L23.65 26.23L13.55 26.23L11.07 32ZM18.63 13.57L15.10 22.08L22.30 22.08L18.77 13.57L18.63 13.57ZM40.10 32.35L40.10 32.35Q37.35 32.35 35.30 31.23Q33.24 30.10 32.09 28.06Q30.94 26.02 30.94 23.25L30.94 23.25Q30.94 20.48 32.07 18.44Q33.21 16.40 35.28 15.27Q37.35 14.15 40.10 14.15L40.10 14.15Q43.57 14.15 45.81 15.90Q48.06 17.65 48.64 20.71L48.64 20.71L43.77 20.71Q43.39 19.57 42.46 18.96Q41.52 18.35 40.10 18.35L40.10 18.35Q38.14 18.35 36.96 19.63Q35.78 20.92 35.78 23.25L35.78 23.25Q35.78 25.58 36.97 26.87Q38.17 28.15 40.10 28.15L40.10 28.15Q43.19 28.15 43.86 25.52L43.86 25.52L48.73 25.52Q48.20 28.73 45.96 30.54Q43.71 32.35 40.10 32.35ZM55.47 32.32L55.47 32.32Q52.38 32.32 50.63 30.82Q48.88 29.32 48.88 26.87L48.88 26.87Q48.88 24.27 50.68 22.87Q52.49 21.47 55.88 21.47L55.88 21.47L60.89 21.47L60.89 20.80Q60.89 17.97 57.51 17.97L57.51 17.97Q54.56 17.97 53.95 20.01L53.95 20.01L49.14 20.01Q49.72 17.13 51.85 15.64Q53.98 14.15 57.51 14.15L57.51 14.15Q61.42 14.15 63.47 15.90Q65.53 17.65 65.53 21.00L65.53 21.00L65.53 27.22L67.80 27.22L67.80 32L62.90 32L62.90 29.14L61.68 29.14Q60.77 30.66 59.26 31.49Q57.74 32.32 55.47 32.32ZM56.20 28.65L56.20 28.65Q57.57 28.65 58.62 28.15Q59.67 27.65 60.28 26.82Q60.89 25.99 60.89 24.94L60.89 24.94L60.89 24.68L56.11 24.68Q53.48 24.68 53.48 26.63L53.48 26.63Q53.48 27.60 54.21 28.12Q54.94 28.65 56.20 28.65ZM76.88 32.35L76.88 32.35Q74.19 32.35 72.31 31.21Q70.43 30.07 69.47 28.02Q68.50 25.96 68.50 23.25L68.50 23.25Q68.50 20.51 69.44 18.45Q70.37 16.40 72.16 15.27Q73.96 14.15 76.47 14.15L76.47 14.15Q78.39 14.15 79.78 14.86Q81.16 15.58 81.92 16.89L81.92 16.89L82.04 16.89L82.04 7.50L86.88 7.50L86.88 27.22L89.27 27.22L89.27 32L84.37 32L84.37 29.14L83.15 29.14Q82.21 30.66 80.65 31.50Q79.09 32.35 76.88 32.35ZM77.78 28.15L77.78 28.15Q79.73 28.15 80.89 27.06Q82.04 25.96 82.04 24.04L82.04 24.04L82.04 22.46Q82.04 20.54 80.89 19.44Q79.73 18.35 77.78 18.35L77.78 18.35Q75.56 18.35 74.45 19.66Q73.35 20.98 73.35 23.25L73.35 23.25Q73.35 25.52 74.45 26.84Q75.56 28.15 77.78 28.15ZM99.28 32.35L99.28 32.35Q96.45 32.35 94.35 31.23Q92.25 30.10 91.11 28.05Q89.97 25.99 89.97 23.19L89.97 23.19Q89.97 20.39 91.08 18.36Q92.19 16.34 94.24 15.24Q96.30 14.15 99.10 14.15L99.10 14.15Q101.84 14.15 103.81 15.20Q105.78 16.25 106.83 18.20Q107.88 20.16 107.88 22.87L107.88 22.87L107.88 24.50L94.61 24.50Q94.90 26.46 96.10 27.48Q97.29 28.50 99.25 28.50L99.25 28.50Q100.79 28.50 101.70 27.98Q102.60 27.45 102.98 26.37L102.98 26.37L107.82 26.37Q107.24 29.17 104.99 30.76Q102.75 32.35 99.28 32.35ZM94.73 21.30L94.73 21.30L103.24 21.30Q103.01 19.63 101.96 18.80Q100.91 17.97 99.13 17.97L99.13 17.97Q97.35 17.97 96.23 18.82Q95.10 19.66 94.73 21.30ZM115.81 32L110.97 32L110.97 19.28L108.58 19.28L108.58 14.50L113.48 14.50L113.48 17.36L114.76 17.36Q115.70 15.84 117.18 15.01Q118.67 14.18 120.86 14.18L120.86 14.18Q122.96 14.18 124.46 14.92Q125.96 15.67 126.87 17.13L126.87 17.13L126.98 17.13Q129.00 14.18 132.96 14.18L132.96 14.18Q136.35 14.18 138.33 16.15Q140.31 18.12 140.31 21.47L140.31 21.47L140.31 32L135.47 32L135.47 22.40Q135.47 18.50 131.77 18.50L131.77 18.50Q128.06 18.50 128.06 22.40L128.06 22.40L128.06 32L123.22 32L123.22 22.40Q123.22 18.50 119.46 18.50L119.46 18.50Q117.65 18.50 116.73 19.46Q115.81 20.42 115.81 22.40L115.81 22.40L115.81 32ZM146.96 39L142.97 39L142.97 35.12L146.82 35.12L148.19 31.85L140.63 14.50L145.77 14.50L150.67 26.28L150.78 26.28L155.57 14.50L160.52 14.50L153.03 32L151.60 35.38Q150.87 37.10 149.91 38.05Q148.95 39 146.96 39L146.96 39Z" fill="#111111"></path></g>
            
          </svg>