
          <svg data-logo="logo" xmlns="http://www.w3.org/2000/svg" viewBox="0 0 41 41">
            <g id="logogram" transform="translate(0, 0) rotate(0)"><path fill-rule="evenodd" clip-rule="evenodd" d="M20.543 40.7827C31.5887 40.7827 40.543 31.8284 40.543 20.7827C40.543 9.73702 31.5887 0.782715 20.543 0.782715C9.49726 0.782715 0.542969 9.73702 0.542969 20.7827C0.542969 31.8284 9.49726 40.7827 20.543 40.7827ZM26.7823 10.0996C27.086 9.02076 26.0391 8.38284 25.083 9.06401L11.7361 18.5723C10.6992 19.311 10.8623 20.7827 11.9811 20.7827H15.4957V20.7555H22.3455L16.7642 22.7248L14.3037 31.4659C14 32.5447 15.0468 33.1826 16.003 32.5014L29.3499 22.9932C30.3868 22.2545 30.2236 20.7827 29.1049 20.7827H23.7751L26.7823 10.0996Z" fill="#ffffff"/></g>
            <g id="logotype" transform="translate(41, 20.5)"></g>
            
          </svg>
        